#N canvas 0 47 1364 719 10;
#X obj 395 250 grid;
#X msg 372 136 led 0 0 15;
#X obj 416 338 print gridout;
#X msg 464 136 focus;
#X obj 569 250 grid;
#X obj 590 338 print gridout;
#X msg 638 136 focus;
#X msg 546 136 led 8 0 15;
#X msg 722 131 unfocus;
#X obj 192 259 step 0 0 0 0 0 0 0 0;
#X msg 220 221 focus;
#X msg 56 222 step -1;
#X floatatom 195 320 5 0 0 0 - - -, f 5;
#X floatatom 128 320 5 0 0 0 - - -, f 5;
#X floatatom 164 320 5 0 0 0 - - -, f 5;
#X floatatom 226 320 5 0 0 0 - - -, f 5;
#X floatatom 259 320 5 0 0 0 - - -, f 5;
#X floatatom 297 321 5 0 0 0 - - -, f 5;
#X floatatom 331 321 5 0 0 0 - - -, f 5;
#X floatatom 365 321 5 0 0 0 - - -, f 5;
#X obj 184 131 bng 15 250 50 0 empty empty empty 17 7 0 10 -262144
-1 -1;
#X obj 188 172 metro 80;
#X msg 117 223 step 1;
#X connect 0 0 2 0;
#X connect 1 0 0 0;
#X connect 3 0 0 0;
#X connect 4 0 5 0;
#X connect 6 0 4 0;
#X connect 7 0 4 0;
#X connect 8 0 4 0;
#X connect 9 0 13 0;
#X connect 9 1 14 0;
#X connect 9 2 12 0;
#X connect 9 3 15 0;
#X connect 9 4 16 0;
#X connect 9 5 17 0;
#X connect 9 6 18 0;
#X connect 9 7 19 0;
#X connect 10 0 9 0;
#X connect 11 0 9 0;
#X connect 20 0 21 0;
#X connect 21 0 22 0;
#X connect 22 0 9 0;
