#N canvas 0 47 1364 719 10;
#X obj 395 250 grid;
#X obj 416 338 print gridout;
#X msg 464 191 focus;
#X obj 569 250 grid;
#X obj 590 338 print gridout;
#X msg 638 136 focus;
#X msg 722 131 unfocus;
#X obj 192 259 step 0 0 0 0 0 0 0 0;
#X msg 220 221 focus;
#X msg 56 222 step -1;
#X floatatom 297 321 5 0 0 0 - - -, f 5;
#X floatatom 331 321 5 0 0 0 - - -, f 5;
#X floatatom 365 321 5 0 0 0 - - -, f 5;
#X obj 184 131 bng 15 250 50 0 empty empty empty 17 7 0 10 -262144
-1 -1;
#X obj 188 172 metro 80;
#X msg 117 223 step 1;
#X msg 140 113 stop;
#X obj 874 264 ww 0 0 0 0 0 0;
#X msg 916 160 focus;
#X floatatom 938 320 5 0 0 0 - - -, f 5;
#X floatatom 976 321 5 0 0 0 - - -, f 5;
#X floatatom 1010 321 5 0 0 0 - - -, f 5;
#X obj 980 52 vsl 15 128 0 4095 0 0 empty empty empty 0 -9 0 10 -262144
-1 -1 0 1;
#X msg 965 197 param \$1;
#X floatatom 1037 199 5 0 0 0 - - -, f 5;
#X obj 181 495 kria 0 0 0 0;
#X msg 170 400 focus;
#X floatatom 149 531 5 0 0 0 - - -, f 5;
#X msg 464 394 focus;
#X obj 496 435 mp 0 0 0 0 0 0 0 0;
#X obj 816 116 bng 15 250 50 0 empty empty empty 17 7 0 10 -262144
-1 -1;
#X obj 844 189 metro 100;
#X msg 844 117 stop;
#X floatatom 260 321 5 0 0 0 - - -, f 5;
#X obj 176 308 bng 15 250 50 0 empty empty empty 17 7 0 10 -262144
-1 -1;
#X obj 201 311 bng 15 250 50 0 empty empty empty 17 7 0 10 -262144
-1 -1;
#X obj 224 311 bng 15 250 50 0 empty empty empty 17 7 0 10 -262144
-1 -1;
#X obj 246 313 bng 15 250 50 0 empty empty empty 17 7 0 10 -262144
-1 -1;
#X obj 843 320 bng 15 250 50 0 empty empty empty 17 7 0 10 -262144
-1 -1;
#X obj 866 319 bng 15 250 50 0 empty empty empty 17 7 0 10 -262144
-1 -1;
#X obj 890 319 bng 15 250 50 0 empty empty empty 17 7 0 10 -262144
-1 -1;
#X obj 912 319 bng 15 250 50 0 empty empty empty 17 7 0 10 -262144
-1 -1;
#X obj 450 475 bng 15 250 50 0 empty empty empty 17 7 0 10 -262144
-1 -1;
#X obj 473 474 bng 15 250 50 0 empty empty empty 17 7 0 10 -262144
-1 -1;
#X obj 497 474 bng 15 250 50 0 empty empty empty 17 7 0 10 -262144
-1 -1;
#X obj 519 474 bng 15 250 50 0 empty empty empty 17 7 0 10 -262144
-1 -1;
#X obj 547 475 bng 15 250 50 0 empty empty empty 17 7 0 10 -262144
-1 -1;
#X obj 570 474 bng 15 250 50 0 empty empty empty 17 7 0 10 -262144
-1 -1;
#X obj 594 474 bng 15 250 50 0 empty empty empty 17 7 0 10 -262144
-1 -1;
#X obj 616 474 bng 15 250 50 0 empty empty empty 17 7 0 10 -262144
-1 -1;
#X obj 523 397 metro 100;
#X obj 526 367 bng 15 250 50 0 empty empty empty 17 7 0 10 -262144
-1 -1;
#X obj 212 388 bng 15 250 50 0 empty empty empty 17 7 0 10 -262144
-1 -1;
#X obj 231 422 metro 120;
#X msg 236 395 stop;
#X floatatom 222 536 5 0 0 0 - - -, f 5;
#X floatatom 184 537 5 0 0 0 - - -, f 5;
#X floatatom 271 539 5 0 0 0 - - -, f 5;
#X msg 554 368 stop;
#X msg 547 87 0;
#X msg 594 87 15;
#X msg 546 136 led 8 0 \$1;
#X obj 361 20 vsl 15 128 0 15 0 0 empty empty empty 0 -9 0 10 -262144
-1 -1 8700 1;
#X msg 372 191 led 0 0 \$1;
#X connect 0 0 1 0;
#X connect 2 0 0 0;
#X connect 3 0 4 0;
#X connect 5 0 3 0;
#X connect 6 0 3 0;
#X connect 7 0 34 0;
#X connect 7 1 35 0;
#X connect 7 2 36 0;
#X connect 7 3 37 0;
#X connect 7 4 33 0;
#X connect 7 5 10 0;
#X connect 7 6 11 0;
#X connect 7 7 12 0;
#X connect 8 0 7 0;
#X connect 9 0 7 0;
#X connect 13 0 14 0;
#X connect 14 0 7 0;
#X connect 15 0 7 0;
#X connect 16 0 14 0;
#X connect 17 0 38 0;
#X connect 17 1 39 0;
#X connect 17 2 40 0;
#X connect 17 3 41 0;
#X connect 17 4 19 0;
#X connect 17 5 20 0;
#X connect 17 6 21 0;
#X connect 18 0 17 0;
#X connect 22 0 23 0;
#X connect 22 0 24 0;
#X connect 23 0 17 0;
#X connect 25 0 27 0;
#X connect 25 1 56 0;
#X connect 25 2 55 0;
#X connect 25 3 57 0;
#X connect 26 0 25 0;
#X connect 28 0 29 0;
#X connect 29 0 42 0;
#X connect 29 1 43 0;
#X connect 29 2 44 0;
#X connect 29 3 45 0;
#X connect 29 4 46 0;
#X connect 29 5 47 0;
#X connect 29 6 48 0;
#X connect 29 7 49 0;
#X connect 30 0 31 0;
#X connect 31 0 17 0;
#X connect 32 0 31 0;
#X connect 50 0 29 0;
#X connect 51 0 50 0;
#X connect 52 0 53 0;
#X connect 53 0 25 0;
#X connect 54 0 53 0;
#X connect 58 0 50 0;
#X connect 59 0 61 0;
#X connect 60 0 61 0;
#X connect 61 0 3 0;
#X connect 62 0 63 0;
#X connect 63 0 0 0;
