#N canvas 0 47 1364 719 10;
#X obj 165 300 ww 0 0 0 0 0 0;
#X msg 207 196 focus;
#X floatatom 229 356 5 0 0 0 - - -, f 5;
#X floatatom 267 357 5 0 0 0 - - -, f 5;
#X floatatom 301 357 5 0 0 0 - - -, f 5;
#X obj 271 88 vsl 15 128 0 4095 0 0 empty empty empty 0 -9 0 10 -262144
-1 -1 0 1;
#X msg 256 233 param \$1;
#X floatatom 328 235 5 0 0 0 - - -, f 5;
#X obj 107 152 bng 15 250 50 0 empty empty empty 17 7 0 10 -262144
-1 -1;
#X obj 135 225 metro 100;
#X msg 135 153 stop;
#X obj 134 356 bng 15 250 50 0 empty empty empty 17 7 0 10 -262144
-1 -1;
#X obj 157 355 bng 15 250 50 0 empty empty empty 17 7 0 10 -262144
-1 -1;
#X obj 181 355 bng 15 250 50 0 empty empty empty 17 7 0 10 -262144
-1 -1;
#X obj 203 355 bng 15 250 50 0 empty empty empty 17 7 0 10 -262144
-1 -1;
#X connect 0 0 11 0;
#X connect 0 1 12 0;
#X connect 0 2 13 0;
#X connect 0 3 14 0;
#X connect 0 4 2 0;
#X connect 0 5 3 0;
#X connect 0 6 4 0;
#X connect 1 0 0 0;
#X connect 5 0 6 0;
#X connect 5 0 7 0;
#X connect 6 0 0 0;
#X connect 8 0 9 0;
#X connect 9 0 0 0;
#X connect 10 0 9 0;
